<mxfile host="app.diagrams.net" modified="2022-06-26T09:38:21.043Z" agent="5.0 (Windows NT 10.0; Win64; x64) AppleWebKit/537.36 (KHTML, like Gecko) Chrome/102.0.0.0 Safari/537.36" etag="AowK3sjjS07BGJxbdmrE" version="20.0.3" type="github">
  <diagram id="w9VmHyPrltCmEC7dtd8x" name="Page-1">
    <mxGraphModel dx="1422" dy="2042" grid="1" gridSize="10" guides="1" tooltips="1" connect="1" arrows="1" fold="1" page="1" pageScale="1" pageWidth="827" pageHeight="1169" math="0" shadow="0">
      <root>
        <mxCell id="0" />
        <mxCell id="1" parent="0" />
        <mxCell id="HTLwkOk4kgGoiY-0BRzB-1" value="&lt;h1 style=&quot;font-size: 25px;&quot;&gt;先说IO&lt;/h1&gt;&lt;p style=&quot;font-size: 25px;&quot;&gt;其实就一句话：Java种IO的核心概念就是：&lt;b style=&quot;&quot;&gt;&lt;font color=&quot;#cc0000&quot;&gt;Stream&lt;/font&gt;&lt;/b&gt;&lt;/p&gt;" style="text;html=1;strokeColor=none;fillColor=none;spacing=5;spacingTop=-20;whiteSpace=wrap;overflow=hidden;rounded=0;fontSize=25;fontColor=#46495D;" vertex="1" parent="1">
          <mxGeometry x="50" y="-50" width="650" height="130" as="geometry" />
        </mxCell>
        <mxCell id="HTLwkOk4kgGoiY-0BRzB-18" value="" style="edgeStyle=orthogonalEdgeStyle;curved=0;rounded=1;sketch=0;orthogonalLoop=1;jettySize=auto;html=1;fontColor=#46495D;strokeColor=#788AA3;fillColor=#B2C9AB;fontSize=18;fontStyle=0" edge="1" parent="1" source="HTLwkOk4kgGoiY-0BRzB-16" target="HTLwkOk4kgGoiY-0BRzB-17">
          <mxGeometry relative="1" as="geometry" />
        </mxCell>
        <mxCell id="HTLwkOk4kgGoiY-0BRzB-20" value="" style="edgeStyle=orthogonalEdgeStyle;curved=0;rounded=1;sketch=0;orthogonalLoop=1;jettySize=auto;html=1;fontColor=#46495D;strokeColor=#788AA3;fillColor=#B2C9AB;fontSize=18;fontStyle=0" edge="1" parent="1" source="HTLwkOk4kgGoiY-0BRzB-16" target="HTLwkOk4kgGoiY-0BRzB-19">
          <mxGeometry relative="1" as="geometry" />
        </mxCell>
        <mxCell id="HTLwkOk4kgGoiY-0BRzB-23" style="edgeStyle=orthogonalEdgeStyle;curved=0;rounded=1;sketch=0;orthogonalLoop=1;jettySize=auto;html=1;exitX=1;exitY=0.5;exitDx=0;exitDy=0;entryX=0;entryY=0.5;entryDx=0;entryDy=0;fontColor=#46495D;strokeColor=#788AA3;fillColor=#B2C9AB;fontSize=18;fontStyle=0" edge="1" parent="1" source="HTLwkOk4kgGoiY-0BRzB-16" target="HTLwkOk4kgGoiY-0BRzB-22">
          <mxGeometry relative="1" as="geometry" />
        </mxCell>
        <mxCell id="HTLwkOk4kgGoiY-0BRzB-24" style="edgeStyle=orthogonalEdgeStyle;curved=0;rounded=1;sketch=0;orthogonalLoop=1;jettySize=auto;html=1;exitX=1;exitY=0.5;exitDx=0;exitDy=0;entryX=0;entryY=0.5;entryDx=0;entryDy=0;fontColor=#46495D;strokeColor=#788AA3;fillColor=#B2C9AB;fontSize=18;fontStyle=0" edge="1" parent="1" source="HTLwkOk4kgGoiY-0BRzB-16" target="HTLwkOk4kgGoiY-0BRzB-21">
          <mxGeometry relative="1" as="geometry" />
        </mxCell>
        <mxCell id="HTLwkOk4kgGoiY-0BRzB-26" value="核心概念" style="edgeLabel;html=1;align=center;verticalAlign=middle;resizable=0;points=[];fontColor=#46495D;fontStyle=0;fontSize=15;" vertex="1" connectable="0" parent="HTLwkOk4kgGoiY-0BRzB-24">
          <mxGeometry x="-0.5391" relative="1" as="geometry">
            <mxPoint as="offset" />
          </mxGeometry>
        </mxCell>
        <mxCell id="HTLwkOk4kgGoiY-0BRzB-16" value="NIO" style="rounded=1;whiteSpace=wrap;html=1;shadow=0;glass=0;sketch=0;fontSize=18;strokeColor=#432D57;strokeWidth=2;fillColor=#76608a;fontStyle=0;fontColor=#ffffff;" vertex="1" parent="1">
          <mxGeometry x="110" y="445" width="120" height="60" as="geometry" />
        </mxCell>
        <mxCell id="HTLwkOk4kgGoiY-0BRzB-17" value="NIO" style="rounded=1;whiteSpace=wrap;html=1;shadow=0;glass=0;sketch=0;fontSize=18;fontColor=#46495D;strokeColor=#788AA3;strokeWidth=2;fillColor=#B2C9AB;fontStyle=0" vertex="1" parent="1">
          <mxGeometry x="330" y="445" width="120" height="60" as="geometry" />
        </mxCell>
        <mxCell id="HTLwkOk4kgGoiY-0BRzB-19" value="Channel" style="whiteSpace=wrap;html=1;fontSize=18;fillColor=#6d8764;strokeColor=#3A5431;fontColor=#ffffff;rounded=1;shadow=0;glass=0;sketch=0;strokeWidth=2;fontStyle=0" vertex="1" parent="1">
          <mxGeometry x="330" y="445" width="120" height="60" as="geometry" />
        </mxCell>
        <mxCell id="HTLwkOk4kgGoiY-0BRzB-21" value="Buffer" style="whiteSpace=wrap;html=1;fontSize=18;fillColor=#a0522d;strokeColor=#6D1F00;fontColor=#ffffff;rounded=1;shadow=0;glass=0;sketch=0;strokeWidth=2;fontStyle=0" vertex="1" parent="1">
          <mxGeometry x="330" y="565" width="120" height="60" as="geometry" />
        </mxCell>
        <mxCell id="HTLwkOk4kgGoiY-0BRzB-22" value="Selecter" style="whiteSpace=wrap;html=1;fontSize=18;fillColor=#647687;strokeColor=#314354;fontColor=#ffffff;rounded=1;shadow=0;glass=0;sketch=0;strokeWidth=2;fontStyle=0" vertex="1" parent="1">
          <mxGeometry x="330" y="325" width="120" height="60" as="geometry" />
        </mxCell>
        <mxCell id="HTLwkOk4kgGoiY-0BRzB-34" style="edgeStyle=orthogonalEdgeStyle;curved=0;rounded=1;sketch=0;orthogonalLoop=1;jettySize=auto;html=1;exitX=0.5;exitY=1;exitDx=0;exitDy=0;entryX=0.5;entryY=0;entryDx=0;entryDy=0;fontColor=#46495D;strokeColor=#788AA3;fillColor=#B2C9AB;fontSize=17;strokeWidth=2;" edge="1" parent="1" source="HTLwkOk4kgGoiY-0BRzB-37" target="HTLwkOk4kgGoiY-0BRzB-30">
          <mxGeometry relative="1" as="geometry">
            <mxPoint x="850" y="390" as="sourcePoint" />
          </mxGeometry>
        </mxCell>
        <mxCell id="HTLwkOk4kgGoiY-0BRzB-35" style="edgeStyle=orthogonalEdgeStyle;curved=0;rounded=1;sketch=0;orthogonalLoop=1;jettySize=auto;html=1;exitX=0.5;exitY=1;exitDx=0;exitDy=0;entryX=0.5;entryY=0;entryDx=0;entryDy=0;fontColor=#46495D;strokeColor=#788AA3;fillColor=#B2C9AB;fontSize=17;strokeWidth=2;" edge="1" parent="1" source="HTLwkOk4kgGoiY-0BRzB-37" target="HTLwkOk4kgGoiY-0BRzB-29">
          <mxGeometry relative="1" as="geometry">
            <mxPoint x="850" y="390" as="sourcePoint" />
          </mxGeometry>
        </mxCell>
        <mxCell id="HTLwkOk4kgGoiY-0BRzB-36" style="edgeStyle=orthogonalEdgeStyle;curved=0;rounded=1;sketch=0;orthogonalLoop=1;jettySize=auto;html=1;fontColor=#46495D;strokeColor=#788AA3;fillColor=#B2C9AB;exitX=0.5;exitY=1;exitDx=0;exitDy=0;fontSize=17;strokeWidth=2;" edge="1" parent="1" source="HTLwkOk4kgGoiY-0BRzB-37" target="HTLwkOk4kgGoiY-0BRzB-28">
          <mxGeometry relative="1" as="geometry">
            <mxPoint x="850" y="350" as="sourcePoint" />
            <Array as="points">
              <mxPoint x="850" y="350" />
            </Array>
          </mxGeometry>
        </mxCell>
        <mxCell id="HTLwkOk4kgGoiY-0BRzB-39" style="edgeStyle=orthogonalEdgeStyle;curved=0;rounded=1;sketch=0;orthogonalLoop=1;jettySize=auto;html=1;exitX=0.5;exitY=1;exitDx=0;exitDy=0;entryX=0.5;entryY=0;entryDx=0;entryDy=0;fontSize=17;fontColor=#46495D;strokeColor=#788AA3;fillColor=#B2C9AB;strokeWidth=2;" edge="1" parent="1" source="HTLwkOk4kgGoiY-0BRzB-28" target="HTLwkOk4kgGoiY-0BRzB-32">
          <mxGeometry relative="1" as="geometry" />
        </mxCell>
        <mxCell id="HTLwkOk4kgGoiY-0BRzB-28" value="Channel" style="whiteSpace=wrap;html=1;fontSize=17;fillColor=#fad7ac;strokeColor=#b46504;rounded=1;shadow=0;glass=0;sketch=0;strokeWidth=2;" vertex="1" parent="1">
          <mxGeometry x="790" y="440" width="120" height="60" as="geometry" />
        </mxCell>
        <mxCell id="HTLwkOk4kgGoiY-0BRzB-40" style="edgeStyle=orthogonalEdgeStyle;curved=0;rounded=1;sketch=0;orthogonalLoop=1;jettySize=auto;html=1;exitX=0.5;exitY=1;exitDx=0;exitDy=0;entryX=0.5;entryY=0;entryDx=0;entryDy=0;fontSize=17;fontColor=#46495D;strokeColor=#788AA3;fillColor=#B2C9AB;strokeWidth=2;" edge="1" parent="1" source="HTLwkOk4kgGoiY-0BRzB-29" target="HTLwkOk4kgGoiY-0BRzB-33">
          <mxGeometry relative="1" as="geometry" />
        </mxCell>
        <mxCell id="HTLwkOk4kgGoiY-0BRzB-29" value="Channel" style="whiteSpace=wrap;html=1;fontSize=17;fillColor=#fad7ac;strokeColor=#b46504;rounded=1;shadow=0;glass=0;sketch=0;strokeWidth=2;" vertex="1" parent="1">
          <mxGeometry x="980" y="440" width="120" height="60" as="geometry" />
        </mxCell>
        <mxCell id="HTLwkOk4kgGoiY-0BRzB-38" style="edgeStyle=orthogonalEdgeStyle;curved=0;rounded=1;sketch=0;orthogonalLoop=1;jettySize=auto;html=1;exitX=0.5;exitY=1;exitDx=0;exitDy=0;fontSize=17;fontColor=#46495D;strokeColor=#788AA3;fillColor=#B2C9AB;strokeWidth=2;" edge="1" parent="1" source="HTLwkOk4kgGoiY-0BRzB-30" target="HTLwkOk4kgGoiY-0BRzB-31">
          <mxGeometry relative="1" as="geometry" />
        </mxCell>
        <mxCell id="HTLwkOk4kgGoiY-0BRzB-30" value="Channel" style="whiteSpace=wrap;html=1;fontSize=17;fillColor=#fad7ac;strokeColor=#b46504;rounded=1;shadow=0;glass=0;sketch=0;strokeWidth=2;" vertex="1" parent="1">
          <mxGeometry x="600" y="440" width="120" height="60" as="geometry" />
        </mxCell>
        <mxCell id="HTLwkOk4kgGoiY-0BRzB-44" value="" style="edgeStyle=orthogonalEdgeStyle;curved=0;rounded=1;sketch=0;orthogonalLoop=1;jettySize=auto;html=1;fontSize=17;fontColor=#46495D;strokeColor=#788AA3;strokeWidth=2;fillColor=#B2C9AB;" edge="1" parent="1" source="HTLwkOk4kgGoiY-0BRzB-31" target="HTLwkOk4kgGoiY-0BRzB-43">
          <mxGeometry relative="1" as="geometry" />
        </mxCell>
        <mxCell id="HTLwkOk4kgGoiY-0BRzB-31" value="Buffer" style="whiteSpace=wrap;html=1;fontSize=17;fillColor=#bac8d3;strokeColor=#23445d;rounded=1;shadow=0;glass=0;sketch=0;strokeWidth=2;" vertex="1" parent="1">
          <mxGeometry x="600" y="545" width="120" height="60" as="geometry" />
        </mxCell>
        <mxCell id="HTLwkOk4kgGoiY-0BRzB-47" value="" style="edgeStyle=orthogonalEdgeStyle;curved=0;rounded=1;sketch=0;orthogonalLoop=1;jettySize=auto;html=1;fontSize=17;fontColor=#46495D;strokeColor=#788AA3;strokeWidth=2;fillColor=#B2C9AB;" edge="1" parent="1" source="HTLwkOk4kgGoiY-0BRzB-32" target="HTLwkOk4kgGoiY-0BRzB-45">
          <mxGeometry relative="1" as="geometry" />
        </mxCell>
        <mxCell id="HTLwkOk4kgGoiY-0BRzB-32" value="Buffer" style="whiteSpace=wrap;html=1;fontSize=17;fillColor=#bac8d3;strokeColor=#23445d;rounded=1;shadow=0;glass=0;sketch=0;strokeWidth=2;" vertex="1" parent="1">
          <mxGeometry x="790" y="545" width="120" height="60" as="geometry" />
        </mxCell>
        <mxCell id="HTLwkOk4kgGoiY-0BRzB-48" value="" style="edgeStyle=orthogonalEdgeStyle;curved=0;rounded=1;sketch=0;orthogonalLoop=1;jettySize=auto;html=1;fontSize=17;fontColor=#46495D;strokeColor=#788AA3;strokeWidth=2;fillColor=#B2C9AB;" edge="1" parent="1" source="HTLwkOk4kgGoiY-0BRzB-33" target="HTLwkOk4kgGoiY-0BRzB-46">
          <mxGeometry relative="1" as="geometry" />
        </mxCell>
        <mxCell id="HTLwkOk4kgGoiY-0BRzB-33" value="Buffer" style="whiteSpace=wrap;html=1;fontSize=17;fillColor=#bac8d3;strokeColor=#23445d;rounded=1;shadow=0;glass=0;sketch=0;strokeWidth=2;" vertex="1" parent="1">
          <mxGeometry x="980" y="545" width="120" height="60" as="geometry" />
        </mxCell>
        <mxCell id="HTLwkOk4kgGoiY-0BRzB-37" value="Selecter" style="ellipse;whiteSpace=wrap;html=1;rounded=0;sketch=0;strokeColor=#9673a6;fillColor=#e1d5e7;fontSize=17;fontStyle=0;strokeWidth=2;" vertex="1" parent="1">
          <mxGeometry x="800" y="300" width="100" height="60" as="geometry" />
        </mxCell>
        <mxCell id="HTLwkOk4kgGoiY-0BRzB-42" value="" style="edgeStyle=orthogonalEdgeStyle;curved=0;rounded=1;sketch=0;orthogonalLoop=1;jettySize=auto;html=1;fontSize=17;fontColor=#46495D;strokeColor=#788AA3;fillColor=#B2C9AB;strokeWidth=2;" edge="1" parent="1" source="HTLwkOk4kgGoiY-0BRzB-41" target="HTLwkOk4kgGoiY-0BRzB-37">
          <mxGeometry relative="1" as="geometry" />
        </mxCell>
        <mxCell id="HTLwkOk4kgGoiY-0BRzB-41" value="Thread" style="whiteSpace=wrap;html=1;fontSize=17;fillColor=#dae8fc;strokeColor=#6c8ebf;rounded=1;shadow=0;glass=0;sketch=0;strokeWidth=2;" vertex="1" parent="1">
          <mxGeometry x="795" y="210" width="110" height="50" as="geometry" />
        </mxCell>
        <mxCell id="HTLwkOk4kgGoiY-0BRzB-43" value="" style="fontColor=#0066CC;verticalAlign=top;verticalLabelPosition=bottom;labelPosition=center;align=center;html=1;outlineConnect=0;fillColor=#CCCCCC;strokeColor=#6881B3;gradientColor=none;gradientDirection=north;strokeWidth=2;shape=mxgraph.networks.pc;rounded=0;sketch=0;fontSize=17;" vertex="1" parent="1">
          <mxGeometry x="610" y="645" width="100" height="70" as="geometry" />
        </mxCell>
        <mxCell id="HTLwkOk4kgGoiY-0BRzB-45" value="" style="fontColor=#0066CC;verticalAlign=top;verticalLabelPosition=bottom;labelPosition=center;align=center;html=1;outlineConnect=0;fillColor=#CCCCCC;strokeColor=#6881B3;gradientColor=none;gradientDirection=north;strokeWidth=2;shape=mxgraph.networks.pc;rounded=0;sketch=0;fontSize=17;" vertex="1" parent="1">
          <mxGeometry x="800" y="645" width="100" height="70" as="geometry" />
        </mxCell>
        <mxCell id="HTLwkOk4kgGoiY-0BRzB-46" value="" style="fontColor=#0066CC;verticalAlign=top;verticalLabelPosition=bottom;labelPosition=center;align=center;html=1;outlineConnect=0;fillColor=#CCCCCC;strokeColor=#6881B3;gradientColor=none;gradientDirection=north;strokeWidth=2;shape=mxgraph.networks.pc;rounded=0;sketch=0;fontSize=17;" vertex="1" parent="1">
          <mxGeometry x="990" y="645" width="100" height="70" as="geometry" />
        </mxCell>
        <mxCell id="HTLwkOk4kgGoiY-0BRzB-49" value="程序" style="text;html=1;strokeColor=none;fillColor=none;align=center;verticalAlign=middle;whiteSpace=wrap;rounded=0;sketch=0;fontSize=17;fontColor=#46495D;" vertex="1" parent="1">
          <mxGeometry x="630" y="715" width="60" height="30" as="geometry" />
        </mxCell>
        <mxCell id="HTLwkOk4kgGoiY-0BRzB-50" value="程序" style="text;html=1;strokeColor=none;fillColor=none;align=center;verticalAlign=middle;whiteSpace=wrap;rounded=0;sketch=0;fontSize=17;fontColor=#46495D;" vertex="1" parent="1">
          <mxGeometry x="820" y="715" width="60" height="30" as="geometry" />
        </mxCell>
        <mxCell id="HTLwkOk4kgGoiY-0BRzB-51" value="程序" style="text;html=1;strokeColor=none;fillColor=none;align=center;verticalAlign=middle;whiteSpace=wrap;rounded=0;sketch=0;fontSize=17;fontColor=#46495D;" vertex="1" parent="1">
          <mxGeometry x="1010" y="715" width="60" height="30" as="geometry" />
        </mxCell>
      </root>
    </mxGraphModel>
  </diagram>
</mxfile>
